# xmcd
#
# Track frame offsets: 
#        150
#        21287
#        49005
#        74005
#        91152
#        107875
#        127415
#        146137
#        171182
#        197797
#        224062
#        241937
#        266892
#        288897
#        305110
#
# Disc length: 4357 seconds
#
# Revision: 7
# Processed by: cddbd v1.5.2PL0 Copyright (c) Steve Scherf et al.
# Submitted via: ExactAudioCopy v1.0b6
#
DISCID=f911030f
DTITLE=???? - everywhere [Disc 1]
DYEAR=2010
DGENRE=??
TTITLE0=I.D.
TTITLE1=????
TTITLE2=birds
TTITLE3=???????????
TTITLE4=?? -23????-
TTITLE5=????
TTITLE6=??????
TTITLE7=??
TTITLE8=?????
TTITLE9=Gift
TTITLE10=?????
TTITLE11=tune the rainbow
TTITLE12=?????
TTITLE13=???????
TTITLE14=??? ?sunset side
EXTD=YEAR: 2010
EXTT0=
EXTT1=
EXTT2=
EXTT3=
EXTT4=
EXTT5=
EXTT6=
EXTT7=
EXTT8=
EXTT9=
EXTT10=
EXTT11=
EXTT12=
EXTT13=
EXTT14=
PLAYORDER=
